<svg width="32" height="32" viewBox="0 0 32 32" fill="none" xmlns="http://www.w3.org/2000/svg">
<path d="M16 0C7.164 0 0 7.164 0 16C0 23.4973 5.16267 29.7707 12.1227 31.5067C12.048 31.2907 12 31.04 12 30.7293V27.9947C11.3507 27.9947 10.2627 27.9947 9.98933 27.9947C8.89467 27.9947 7.92133 27.524 7.44933 26.6493C6.92533 25.6773 6.83467 24.1907 5.536 23.2813C5.15067 22.9787 5.444 22.6333 5.888 22.68C6.708 22.912 7.388 23.4747 8.028 24.3093C8.66533 25.1453 8.96533 25.3347 10.156 25.3347C10.7333 25.3347 11.5973 25.3013 12.4107 25.1733C12.848 24.0627 13.604 23.04 14.528 22.5573C9.2 22.0093 6.65733 19.3587 6.65733 15.76C6.65733 14.2107 7.31733 12.712 8.43867 11.4493C8.07067 10.196 7.608 7.64 8.58 6.66667C10.9773 6.66667 12.4267 8.22133 12.7747 8.64133C13.9693 8.232 15.2813 8 16.66 8C18.0413 8 19.3587 8.232 20.556 8.644C20.9 8.22667 22.3507 6.66667 24.7533 6.66667C25.7293 7.64133 25.2613 10.208 24.8893 11.4587C26.004 12.7187 26.66 14.2133 26.66 15.76C26.66 19.356 24.1213 22.0053 18.8013 22.556C20.2653 23.32 21.3333 25.4667 21.3333 27.084V30.7293C21.3333 30.868 21.3027 30.968 21.2867 31.0867C27.5213 28.9013 32 22.9813 32 16C32 7.164 24.836 0 16 0Z" fill="#112D3C"/>
</svg>
