<svg width="83" height="38" viewBox="0 0 83 38" fill="none" xmlns="http://www.w3.org/2000/svg">
<path d="M17.4042 11.3949C19.1441 11.6566 20.8836 11.9183 22.4075 12.7343C23.9315 13.5504 25.2399 14.9204 26.1712 16.4059C27.1024 17.8915 27.6565 19.4924 27.9336 21.3088C28.2106 23.1253 28.2106 25.1572 27.8257 26.989C27.4408 28.8207 26.6711 30.4524 25.7168 31.7762C24.7624 33.1 23.6233 34.116 22.1302 34.9318C20.637 35.7477 18.7899 36.3634 16.8503 36.5944C14.9107 36.8253 12.8788 36.6714 11.0855 36.3251C9.29209 35.9788 7.73735 35.44 6.43657 34.7397C5.13578 34.0393 4.08903 33.1773 3.28845 32.0998C2.48786 31.0222 1.93371 29.7292 1.78736 28.4438C1.641 27.1583 1.90269 25.8806 2.31065 24.9338C2.71861 23.987 3.27277 23.3712 3.8579 23.0479C4.44303 22.7247 5.05877 22.6939 5.4435 22.9866C5.82824 23.2792 5.98217 23.895 5.75123 24.4643C5.52028 25.0337 4.90455 25.5571 4.33513 25.588C3.76572 25.619 3.24235 25.1572 2.74969 24.5569C2.25703 23.9565 1.79523 23.2177 1.5642 22.371C1.33318 21.5243 1.33318 20.5699 1.4409 19.7232C1.54863 18.8764 1.76414 18.1376 2.02584 17.491C2.28753 16.8444 2.5954 16.2902 2.90334 15.7359" stroke="#E77745" stroke-width="2"/>
<path d="M10.1386 2.72841C9.72303 2.48233 9.26891 1.90506 8.61088 1.50854C7.95285 1.11202 7.09081 0.896505 6.20063 1.04943C5.31046 1.20235 4.39244 1.72387 3.86897 2.2628C3.3455 2.80173 3.21675 3.35777 3.14085 3.82055C3.06494 4.28333 3.04185 4.65278 2.81484 4.98356C2.58783 5.31435 2.15681 5.60683 1.76805 6.1765C1.37929 6.74618 1.03293 7.59283 1.00225 8.40882C0.971566 9.2248 1.25635 10.0099 1.77986 10.5947C2.30337 11.1796 3.06536 11.5644 3.58868 11.7337C4.112 11.9029 4.39679 11.8567 4.72 12.3187C5.0432 12.7807 5.40495 13.7505 5.66281 14.2044C5.92067 14.6583 6.0746 14.5967 7.38307 14.1041C8.69154 13.6115 11.1545 12.6879 12.4167 12.1608C13.6789 11.6337 13.7404 11.5028 13.6636 11.1335C13.5867 10.7642 13.3712 10.1561 13.2326 9.75973C13.0941 9.36334 13.0325 9.17862 13.2326 8.85515C13.4326 8.53168 13.8944 8.06987 14.0638 7.42352C14.2331 6.77717 14.11 5.94591 13.8484 5.2532C13.5868 4.56048 13.1866 4.00631 12.7402 3.62137C12.2939 3.23643 11.8013 3.02091 11.3663 2.95537C10.9314 2.88984 10.5542 2.9745 10.1386 2.72841Z" fill="#112D3C" stroke="#112D3C"/>
<path d="M21.5492 7.84973C22.0565 6.07405 22.5639 4.29819 23.0714 2.52216" stroke="#E77745" stroke-width="2"/>
<path d="M24.5935 9.37191C25.6083 8.10347 26.623 6.835 27.6378 5.5665" stroke="#E77745" stroke-width="2"/>
<path d="M27.1946 11.3949C28.4631 10.6252 29.7316 9.85547 31 9.08585" stroke="#E77745" stroke-width="2"/>
<path d="M18.9402 25.775C18.6841 26.0222 18.428 26.2693 18.0439 26.4602C17.6599 26.6511 17.1477 26.7859 16.7257 26.8533C16.3036 26.9207 15.9717 26.9207 15.5923 26.8309C15.2129 26.7411 14.7861 26.5614 14.5299 26.319C14.2737 26.0765 14.1883 25.7712 14.1028 25.4655" stroke="#E77745" stroke-width="2"/>
<circle cx="12.0357" cy="22.6908" r="1.9027" fill="#E77745"/>
<circle cx="20.4076" cy="20.4076" r="1.9027" fill="#E77745"/>
<path d="M36.42 15.8C36.42 14.976 36.604 14.24 36.972 13.592C37.348 12.936 37.856 12.428 38.496 12.068C39.144 11.7 39.868 11.516 40.668 11.516C41.604 11.516 42.424 11.756 43.128 12.236C43.832 12.716 44.324 13.38 44.604 14.228H42.672C42.48 13.828 42.208 13.528 41.856 13.328C41.512 13.128 41.112 13.028 40.656 13.028C40.168 13.028 39.732 13.144 39.348 13.376C38.972 13.6 38.676 13.92 38.46 14.336C38.252 14.752 38.148 15.24 38.148 15.8C38.148 16.352 38.252 16.84 38.46 17.264C38.676 17.68 38.972 18.004 39.348 18.236C39.732 18.46 40.168 18.572 40.656 18.572C41.112 18.572 41.512 18.472 41.856 18.272C42.208 18.064 42.48 17.76 42.672 17.36H44.604C44.324 18.216 43.832 18.884 43.128 19.364C42.432 19.836 41.612 20.072 40.668 20.072C39.868 20.072 39.144 19.892 38.496 19.532C37.856 19.164 37.348 18.656 36.972 18.008C36.604 17.36 36.42 16.624 36.42 15.8ZM53.4669 20.084C52.6829 20.084 51.9629 19.9 51.3069 19.532C50.6509 19.164 50.1309 18.656 49.7469 18.008C49.3629 17.352 49.1709 16.612 49.1709 15.788C49.1709 14.972 49.3629 14.24 49.7469 13.592C50.1309 12.936 50.6509 12.424 51.3069 12.056C51.9629 11.688 52.6829 11.504 53.4669 11.504C54.2589 11.504 54.9789 11.688 55.6269 12.056C56.2829 12.424 56.7989 12.936 57.1749 13.592C57.5589 14.24 57.7509 14.972 57.7509 15.788C57.7509 16.612 57.5589 17.352 57.1749 18.008C56.7989 18.656 56.2829 19.164 55.6269 19.532C54.9709 19.9 54.2509 20.084 53.4669 20.084ZM53.4669 18.584C53.9709 18.584 54.4149 18.472 54.7989 18.248C55.1829 18.016 55.4829 17.688 55.6989 17.264C55.9149 16.84 56.0229 16.348 56.0229 15.788C56.0229 15.228 55.9149 14.74 55.6989 14.324C55.4829 13.9 55.1829 13.576 54.7989 13.352C54.4149 13.128 53.9709 13.016 53.4669 13.016C52.9629 13.016 52.5149 13.128 52.1229 13.352C51.7389 13.576 51.4389 13.9 51.2229 14.324C51.0069 14.74 50.8989 15.228 50.8989 15.788C50.8989 16.348 51.0069 16.84 51.2229 17.264C51.4389 17.688 51.7389 18.016 52.1229 18.248C52.5149 18.472 52.9629 18.584 53.4669 18.584ZM66.4288 20.084C65.6448 20.084 64.9248 19.9 64.2688 19.532C63.6128 19.164 63.0928 18.656 62.7088 18.008C62.3248 17.352 62.1328 16.612 62.1328 15.788C62.1328 14.972 62.3248 14.24 62.7088 13.592C63.0928 12.936 63.6128 12.424 64.2688 12.056C64.9248 11.688 65.6448 11.504 66.4288 11.504C67.2208 11.504 67.9408 11.688 68.5888 12.056C69.2448 12.424 69.7608 12.936 70.1368 13.592C70.5208 14.24 70.7128 14.972 70.7128 15.788C70.7128 16.612 70.5208 17.352 70.1368 18.008C69.7608 18.656 69.2448 19.164 68.5888 19.532C67.9328 19.9 67.2128 20.084 66.4288 20.084ZM66.4288 18.584C66.9328 18.584 67.3768 18.472 67.7608 18.248C68.1448 18.016 68.4448 17.688 68.6608 17.264C68.8768 16.84 68.9848 16.348 68.9848 15.788C68.9848 15.228 68.8768 14.74 68.6608 14.324C68.4448 13.9 68.1448 13.576 67.7608 13.352C67.3768 13.128 66.9328 13.016 66.4288 13.016C65.9248 13.016 65.4768 13.128 65.0848 13.352C64.7008 13.576 64.4008 13.9 64.1848 14.324C63.9688 14.74 63.8608 15.228 63.8608 15.788C63.8608 16.348 63.9688 16.84 64.1848 17.264C64.4008 17.688 64.7008 18.016 65.0848 18.248C65.4768 18.472 65.9248 18.584 66.4288 18.584ZM80.2307 20L77.1827 16.268V20H75.5027V11.624H77.1827V15.38L80.2307 11.624H82.2587L78.8027 15.776L82.3547 20H80.2307ZM42.528 23.624V24.98H40.296V32H38.616V24.98H36.384V23.624H42.528ZM55.6818 23.624V32H54.0018V28.436H50.4138V32H48.7338V23.624H50.4138V27.068H54.0018V23.624H55.6818ZM67.4513 30.404H64.1153L63.5633 32H61.7993L64.8113 23.612H66.7673L69.7793 32H68.0033L67.4513 30.404ZM66.9953 29.06L65.7833 25.556L64.5713 29.06H66.9953ZM81.5852 23.624V24.98H79.3532V32H77.6732V24.98H75.4412V23.624H81.5852Z" fill="#112D3C"/>
</svg>
